#define blank_width 16
#define blank_height 16
static unsigned char blank_bits[] = {
   0x00, 0x00, 0x00, 0x00, 0x18, 0x03, 0x30, 0x06, 0x77, 0xec, 0xcf, 0xd8,
   0xdf, 0xd8, 0x6f, 0xec, 0x37, 0xf6, 0x1b, 0xfb, 0x1b, 0xfb, 0x37, 0xf6,
   0x60, 0x0c, 0xc0, 0x18, 0x00, 0x00, 0x00, 0x00};
