#define go_width 16
#define go_height 16
static unsigned char go_bits[] = {
   0x00, 0x00, 0x00, 0x00, 0x00, 0x00, 0x00, 0x00, 0xbe, 0x3c, 0xe3, 0x66,
   0x63, 0xc3, 0x63, 0xc3, 0x3e, 0xc3, 0x03, 0x66, 0x7e, 0x3c, 0xc3, 0x00,
   0xc3, 0x00, 0x7e, 0x00, 0x00, 0x00, 0x00, 0x00};
