#define minus_width 16
#define minus_height 16
static unsigned char minus_bits[] = {
   0x00, 0x00, 0xc0, 0x6c, 0xe0, 0x6c, 0x70, 0x6c, 0x38, 0x6c, 0x1c, 0x6c,
   0x0e, 0x6c, 0x07, 0x6c, 0x0e, 0x6c, 0x1c, 0x6c, 0x38, 0x6c, 0x70, 0x6c,
   0xe0, 0x6c, 0xc0, 0x6c, 0x00, 0x00, 0x00, 0x00};
