#define play_width 16
#define play_height 16
static unsigned char play_bits[] = {
   0x00, 0x00, 0xe0, 0x00, 0xe0, 0x01, 0xe0, 0x03, 0xe0, 0x07, 0xe0, 0x0f,
   0xe0, 0x1f, 0xe0, 0x3f, 0xe0, 0x1f, 0xe0, 0x0f, 0xe0, 0x07, 0xe0, 0x03,
   0xe0, 0x01, 0xe0, 0x00, 0x00, 0x00, 0x00, 0x00};
