#define rec_width 16
#define rec_height 16
static unsigned char rec_bits[] = {
   0x00, 0x00, 0x00, 0x00, 0x00, 0x00, 0x00, 0x01, 0xe0, 0x0f, 0xf0, 0x1f,
   0xf0, 0x1f, 0xf8, 0x3f, 0xf8, 0x3f, 0xf8, 0x3f, 0xf0, 0x1f, 0xf0, 0x1f,
   0xe0, 0x0f, 0x00, 0x01, 0x00, 0x00, 0x00, 0x00};
