#define rev_width 16
#define rev_height 16
static unsigned char rev_bits[] = {
   0x00, 0x00, 0x00, 0x07, 0x80, 0x07, 0xc0, 0x07, 0xe0, 0x07, 0xf0, 0x07,
   0xf8, 0x07, 0xfc, 0x07, 0xf8, 0x07, 0xf0, 0x07, 0xe0, 0x07, 0xc0, 0x07,
   0x80, 0x07, 0x00, 0x07, 0x00, 0x00, 0x00, 0x00};
