#define rew_width 16
#define rew_height 16
static unsigned char rew_bits[] = {
   0x00, 0x00, 0x80, 0x73, 0xc0, 0x39, 0xe0, 0x1c, 0x70, 0x0e, 0x38, 0x07,
   0x9c, 0x03, 0xce, 0x01, 0x9c, 0x03, 0x38, 0x07, 0x70, 0x0e, 0xe0, 0x1c,
   0xc0, 0x39, 0x80, 0x73, 0x00, 0x00, 0x00, 0x00};
