#define plus_width 16
#define plus_height 16
static unsigned char plus_bits[] = {
   0x00, 0x00, 0x36, 0x03, 0x36, 0x07, 0x36, 0x0e, 0x36, 0x1c, 0x36, 0x38,
   0x36, 0x70, 0x36, 0xe0, 0x36, 0x70, 0x36, 0x38, 0x36, 0x1c, 0x36, 0x0e,
   0x36, 0x07, 0x36, 0x03, 0x00, 0x00, 0x00, 0x00};
